<?xml version="1.0" standalone="no"?><!DOCTYPE svg PUBLIC "-//W3C//DTD SVG 1.1//EN" "http://www.w3.org/Graphics/SVG/1.1/DTD/svg11.dtd"><svg t="1715603982929" class="icon" viewBox="0 0 1024 1024" version="1.1" xmlns="http://www.w3.org/2000/svg" p-id="4817" xmlns:xlink="http://www.w3.org/1999/xlink" width="200" height="200"><path d="M770.549531 55.4l5.2 15.6-3.7 9.6-4.5 19.2-4.4 8.9-10.4 31.1-22.2 97-2.9 3-1.5 2.9-2.2 11.1-3 6.7-2.9 2.2-0.8 8.9-8.1 26-6.7 17.8-2.2 8.9-0.7 9.6-5.2 4.4-17.6 28.1-3 3.7-2.2 1.5-1.5 3 0.8 1.5 0 4.4-1.5 5.2-5.2 7.4-4.4 3.7-16.3 10.3-4.4 4.5-3.7 5.1-16.3 18.5-5.9 2.3-2.2 0-5.2-1.5-9.6-14.1-3-2.9-5.9-4.5-3.6-0.7-11.8 0-11.1 1.5-22.2 8.8-5.2 0.8-28.8 0-4.5 1.5-4.4 2.9-23.5 0.8-40.7 7.4-10.4 0.7-10.3-0.7-22.1 4.4-4.4 1.5-8.2 4.6-51.7 5.1-48-0.7-8.9-3-4.4-2.2-3.7-3.1-7.4-8.1L251.249531 415.3l-1.5-10.4-7.4-14.8-8.9-11.1-3.7-6.6-2.9-12.6-6.7-17.8-1.5-11.8 0.8-6.7L183.349531 195.4l-6-4.4-8.8-11.1-10.4-18.5L142.649531 128.7 135.249531 116.8l-4.5-5.1L118.949531 102l-3-3.7-2.2-3.7L112.249531 90.9l0-7.4 0.8-2.9 1.5-2.2L115.249531 76.9l4.4-3.7 4.5-2.2 6.6 0 6 0.7L164.849531 79.8l5.9 0 35.3 19.3 17.1 11.1 14.8 14 24.4 20 7.4 8.3 8.8 13.3 2.3 5.2 1.4 5.2 1.5 10.3-0.7 5.2 2.2 4.4 1.5 5.2 1.5 11.1 1.4 5.2 2.3 4.4 4.3 3 5.9 1.5c0.934-0.534 1.9-1.034 2.9-1.5l2.2-1.5 3-0.7 8.1 0 11.1 2.2 5.2 0 2.2-0.7 2.3-1.5 4.4-4.5L409.249531 195.4l1.5-2.2 2.2-1.5 5.2-1.5 11.1-1.5 5.9 0 5.9-1.4 3-1.5 4.4-3 2.2-2.9 11.9-2.3 6.6 0.8 5.9 1.5 3.7-3.7 8.2-4.5 27.9-7.4 27.4 10.4 1.5 3.7 8.9 10.3 2.2 3.7 1.5 3.7 0.7 3.7-0.7 4.5-8.2 8.9-4.4 2.9-5.2 2.2-5.2 1.5-1.5 0.8-0.7-0.8-1.5 0-1.5-1.5-24.4 8.2-18.3 4.4-7.4 0.8-8.1 3.6-8.9 2.3-43.7 7.4-30.2 7.4-16.2 2.2-5.2 0-2.2 1.5-3.7 1.4-6.7 0-13.3-1.4 0-3.7-2.2 3.7-0.8 0.7-2.2 0.7-5.2-1.4 0 1.4-2.9 1.5-3.7 0-14.8 2.2-3 1.5-2.9 2.2-2.3 9.7-0.7 29.7 0.7 20-0.7 8.8-2.2 9.7 0.7 13.3-2.2 19.2-4.3 11.9-2.9 5.9 0.7 2.2-2.2 8.9-4.5 11.1-1.4 5.1 0 2.3 0.7 2.2L285.249531 428.6l3 1.5 3.7 0.7 21.3-11.1 11.1-4.4 5.9-1.5 23.7-0.8 51.6-11.8 4.4-3 4.5-2.2 5.1-1.5 17.1-1.4 5.1-1.5 5.2-2.2 8.9 0 17.7-5.2L483.249531 384.2l5.7-3 6.7-2.2 20.7-2.2 13.3-5.2 5.9-4.4 4.5 0 4.4-0.8 14.1-4.4 5.2-0.7 5.9 0 11.1 2.2 5.7 2.9 6.7 1.5 3.7 0 3.7-0.7 3-3 2.9-2.2 2.2-3 4.5-10.3 6.6-39.2 3-6.7 2.2-7.5 5.9-31.1 2.2-7.4 3.7-7.4 5.2-23.7-1.5-7.4 4.5-7.4 5.2-16.2L655.249531 171l6-15.5 5.9-26.1L675.249531 103.5l-1.5-4.4L673.749531 85l3-19.9L676.749531 56.2l-0.7-3.7-4.5-6.7-3.7-2.9-11.8-3-45.1 0-3 3L601.249531 45.8l-11.1 2.2-6.5 2.3-8.1-0.8-15.5 3-21.5 7.4-15.5 0.7-20 6.7L483.249531 71l-41.5 5.1-34 6.7-33.1 8.9-22.2 0.7-14.8-1.5-12.6-4.4-5.9-3.7-3.7-3.7-3-4.4-2.2-4.5-1.5-4.4 2.2-1.5 5.2-7.4 1.5-1.5 2.2-1.4 2.2 0 2.3 1.4 2.2-1.4 2.2-0.8 5.2-0.7 5.9-2.2 3-1.5 2.2-2.2 13.3-2.3 4.4-2.9 25.2 1.5 11.7-1.5 59.9-14.1 20-11.1 10.9-2.9 11.9 2.2 23.6-3.7 49.6-3 32.4-3.7 4.4 0 2.3 0.8 1.4 0.7L641.249531 2.9l19.2-0.7 5.9 1.5 3-2.3 3 0 8.8 2.3 2.8 0 3.7-0.8L690.649531 0l5.2 0.7 4.4 1.5 11.9 13.3 2.9 2.9 3 2.3L717.249531 20.7l-0.7-0.8 0 0.8L717.249531 21.4l1.5 0.7 2.2 0 5.9-1.4 3 4.4 3.7 3.7 8.9 4.4 8.9 3 4.4 2.2 3.7 3L770.549531 55.4" fill="#fcc932" p-id="4818"></path><path d="M623.449531 515.3l5.2 1.5 2.2 2.2 3 2.2 15.5 0 8.9 4.4 3.7 3 5.9 6.7 2.2 3.7 6.7 17.7 5 17.8 3.7 8.8-1.5 9.7-2.8 9-0.7 4.4 0 3.7 1.3 3.7 3.7 4.5 5.9 0 3-1.5 2.2-0.8 8.9-7.4 7.4-4.4 3 0 2.9-0.7 3 0.7 6.6 3.7 5.2-1.5 13.3-6.6 9.6-3 5.2 0.7 5.2 1.5 6.7-0.7 5.7-2.2 19.3-14.2 11.1-6 3.7-1.4 3.7-0.8 13.3 3 3.7 0 3.7-0.8 23.6 8.9 3 6.7 2.2 3.1 6.7 5.9 10.9 5.9 7.4 6.7 1.5 2.9 2.2 3 0.8 4.4-1.5 13.4-2.2 1.4-2.3 0-4.4 0.8-4.4 1.5-1.5 1.4-0.8 2.2-22 3-21.5 0.7-20.7 2.3-9.6 2.9-8.9 4.5-31.6 2.9-31.1 4.5-5.2 1.4-5.2-1.4-2.9-1.5-5.9 0-6.7 3.7-11.1 4.4-6.6 4.5-3 2.9-1.5 4.5-0.7 9.6-11 48.8 0 5.3 1.5 9.6 1.5 5.2 0 4.5-1.5 4.4-3.7 17 1.5 5.2 2.2 5.2-7.4 25.9-2.2 19.2 0 4.4 0.7 4.5 3 8.1 5.9 6.7 3.7 2.2 3.6 1.5 3.7 0.7 3.7 0 33.2-4.4 3.7 0 8.2 2.9 3.7 2.2 11.1 2.3 21.4-0.8 6 1.5 5 2.2 19.2-2.9 5.2 1.4 5.2 0.8 11.1 0 16.2 2.2 5.2 2.2 11.9 3.7 6.6 0 3-0.7 2.9-1.5 19.9 4.4 3.7 0 4.4-0.7 4.4-1.5 4.5 2.2 4.4 3 8.9 7.5 9.6 14.8 2.2 5.2-0.7 7.4-3.7 10.4-2.2 2.9-5.2 5.2L900.449531 950l-20.7 2.2-19.8-3.7-13.4-5.9-3.7-3-7.4-2.9-4.4-0.8-17 0-4.4-1.5-1.5 0.8-2.2 0-3.7-0.8-4.5-2.2-3.7-2.9L779.249531 930l-7.2-1.5-20-6.6-25.2-6-12.5-1.4L695.049531 910l-5.9-2.9-5.2 1.4-22 3-5.2 1.5-5.2 2.2-3.7 3.7-29.6-5.9-7.3-2.2-6-3-5.9-4.4-5.2-5.2 0.8-2.2 5.2-7.6 4.4-8.1 0-3-3-5.2-1.4-5.1-3-20.7-4.4-10.4-0.8-24.4-3.7-37.7 0-11.9 3-12.6 4.4-11.9-0.7-6.7 1.5-11.1 4.4-16.3 0.7-5.1-0.7-6 0.7-5.1-0.7-19.3 0.7-7.4-0.7-8.9-0.7-3.7-1.5-3.7-4.5-7.3 2.3-4.5 3.7-14.8 0-10.3-4.5-42.4 0-11.1-13.9-19.2-3-2.9-3.6-2.3 1.4-2.2 5.2-5.2 8.7-4.4 6 0.7 5.9 0 16.2-2.9L623.449531 515.3" fill="#fcc932" p-id="4819"></path><path d="M152.249531 546.4l-0.7-3.7 0-3L152.249531 536l2.9-3 23 3 4.4 2.2 5.9 6.7 11.7 8.8 16.3 14.8 9.6 11.9 3.7 5.9 6.7 17.2 2.2 3.7 6.7 5.9 2.9 1.5 22.9-6.7 11.1-5.2 4.5-2.9 5.2-4.5 19.8 0 14.8-3.1 5.2-2.2 5.9-0.7 11.8-3.7 16.3-8.9 5.9-1.5 6.7-0.7 12.4-7.4 6.7-2.3 14-2.2 14.8 2.2 7.4 3 7.4 6.7 13.3 8.8 3.7 3 3 4.4 1.5 4.6-7.4 8.9-17.8 14.8-18.5 9.6-30.2 10.4-11.8 2.9-12.6 1.5-11.1 0-11.1-2.9-4.4 2.2-4.5 0.7-4.4 0-3.7-0.7-8.1 0L313.249531 643.4l-4.5 2.2-40.5-0.7-12.6 2.2-5.2 20-2.9 38.5 0.7 19.9-6.6 38.6-10.4 35.6-2.2 14-5.2 11.8-6.7 10.4-5.1 12.6-8.9 11.1-3 6.6-1.5 5.9-16.8 18.5-7.4 9.8-8.9 8.1 0 2.3 0.7 2.2 2.3 0.7 2.2 0 4.4 2.2 4.5 0 15.5-6.6 4.3-0.8 4.4 0 7.4-3.7 56.2-17.1 4.5-0.8 5.2 0 5.9 0.8 5.2 2.2 7.2-5.9 3.7-1.5 4.4 0 9.7-2.2 8.8-3.7 16.3-9.6 42.9-8.2 7.4-0.7 6.5 0.7 3.7-0.7 2.3-1.5 1.4-1.5 0.8-2.9 0-5.2-0.8-5.9-2.2-4.5 0-4.4 1.5-4.4 2.2-3.7 3.7-2.3 3.7-0.7 3.7 0.7 3 1.5 6.6 5.2 6.7 3.7 3.7 5.2 2.9 5.9 0.8 3 0 2.9-0.8 3-1.4 2.9-6.7 3-12.6 8.9-4.4 5.1-7.4 4.5-5.9 5.2-10.2 6.6-4.5 1.5-20.7 17.2-4.4 2.2-4.5 1.5 3.7 5.1-3.7-0.7-4.4 0-16.3 5.9-15.5 3.7-6.7 3-5.9 3.7-10.3 8.1c-3.866 2-7.766 3.966-11.7 5.9l-6.7 1.5-5.9 4.5L265.249531 955.2l-26.6 8.1L172.249531 998.8l-28.1 10.4-14.8 2.9-15.6 0.8-2.2 1.4L110.049531 1016.6l-3.7 4.4-1.5 2.2L103.449531 1024 101.149531 1024l-2.8-0.8-0.7-4.4L93.249531 1005.5l1.4-8.2 0-8.1 3.7-49.6 4.3-3.7 4.5-2.2 19.9-5.9 9.7-5.2 8.8 0 2.3-0.7 2.2-1.5 2.2-2.2 1.5-2.3 0.7-2.9 0-2.2-3.7-8.2 0-5.2 1.5-2.2-2.2-3.8-2.2-3-6-5.9-1.4-2.2-1.5-3 0.7-2.9 2.2-3.7 13.3-11.9 1.5-2.9 0.8-3.7 0-3.7-1.5-5.9 0-3-0.8-2.2 6-37L169.249531 763.4l-3.7-72.6 2.2-23-2.2-35.5-3-11.1-8.1-45.3-0.7-15.5 0.7-3.7 0-3.7-0.7-3L152.249531 546.4" fill="#fcc932" p-id="4820"></path></svg>